<svg xmlns="http://www.w3.org/2000/svg" width="22" height="22" viewBox="0 0 22 22">
  <g fill="none">
    <rect width="22" height="22" fill="#000" opacity="0"/>
    <path fill="#B1CCFF" d="M7.91699219,10.2222656 L7.9234375,10.2222656 C8.49707031,10.2201172 9.03417969,9.99667969 9.43808594,9.590625 C9.84199219,9.18457031 10.0632813,8.6453125 10.0611483,8.07382813 C10.0589844,7.50019531 9.83554688,6.96308594 9.42949219,6.55917969 C9.02558594,6.15742188 8.48847656,5.93613281 7.91914063,5.93613281 L7.91269531,5.93613281 C6.73535156,5.94042969 5.775,6.90078125 5.775,8.08027344 L5.775,8.08671875 C5.77714844,9.26191406 6.73964844,10.2222656 7.91699219,10.2222656 L7.91699219,10.2222656 Z M7.08554688,8.078125 C7.08554688,7.62050781 7.45722656,7.24667969 7.91484375,7.24667969 L7.91699219,7.24667969 C8.13828125,7.24667969 8.34667969,7.33261719 8.50351563,7.48945313 C8.66035156,7.64628906 8.7484375,7.8546875 8.7484375,8.078125 C8.7484375,8.29941406 8.6625,8.50996094 8.50566406,8.66679687 C8.34882813,8.82363281 8.14042969,8.91171875 7.91699219,8.91171875 L7.91484375,8.91171875 C7.69355469,8.91171875 7.48515625,8.82578125 7.32832031,8.66894531 C7.17148438,8.51210937 7.08339844,8.30371094 7.08339844,8.08242187 L7.08554688,8.078125 L7.08554688,8.078125 Z"/>
    <path fill="#61A4FF" d="M19.9181641,3.80703125 C19.5185547,3.51699219 18.9964844,3.35371094 18.4486328,3.3515625 L3.47617188,3.3515625 C2.94335938,3.3515625 2.43417969,3.51484375 2.0453125,3.81347656 C1.61132813,4.14648438 1.36210938,4.6234375 1.36210938,5.121875 L1.36210938,16.8265625 C1.36210938,17.3335938 1.61132813,17.8212891 2.04746094,18.1628906 C2.44277344,18.4722656 2.95839844,18.6441406 3.50195313,18.6441406 L18.5324219,18.6441406 C18.5839844,18.6484375 18.6355469,18.6505859 18.6871094,18.6505859 C19.1683594,18.6505859 19.6324219,18.4722656 19.9933594,18.15 C20.3564453,17.8255859 20.5841797,17.3787109 20.6357422,16.8953125 L20.6400391,16.8609375 L20.6400391,5.121875 C20.6378906,4.61699219 20.3757813,4.13789063 19.9181641,3.80703125 Z M2.67265625,5.121875 C2.67265625,4.90917969 3.02285156,4.66425781 3.47617188,4.66425781 L18.4357422,4.66425781 C18.9707031,4.66425781 19.3251953,4.93925781 19.3251953,5.121875 L19.3251953,13.8574219 C19.3251953,13.8574219 17.5376953,10.0546875 17.2326172,9.29199219 C16.9275391,8.52929688 16.6375,8.33808594 16.4419922,8.28222656 C16.3582031,8.25859375 16.2701172,8.24785156 16.1841797,8.24785156 C15.9371094,8.24785156 15.5654297,8.34238281 15.19375,8.79140625 L15.1679688,8.82363281 L11.0966797,14.5212891 C10.9849609,14.6394531 10.8302734,14.7039062 10.6691406,14.7039062 C10.5509766,14.7039062 10.4349609,14.6673828 10.3339844,14.5986328 L7.69355469,12.7337891 L7.68710938,12.7294922 C7.35410156,12.5060547 6.96738281,12.3878906 6.56347656,12.3878906 C6.02851562,12.3878906 5.52363281,12.5941406 5.14550781,12.9701172 L5.13691406,12.9787109 L2.67265625,15.6277344 L2.67265625,5.121875 Z M6.07792969,13.8939453 C6.20898438,13.7693359 6.38085938,13.6984375 6.565625,13.6984375 C6.703125,13.6984375 6.83632812,13.7392578 6.95019531,13.8144531 L9.58632812,15.675 C9.90644531,15.8962891 10.2824219,16.0144531 10.6691406,16.0144531 C11.2277344,16.0144531 11.7583984,15.7673828 12.1214844,15.3398438 L12.1494141,15.3054687 L16.0423828,9.88925781 L19.2929688,16.9103516 C19.2005859,17.1595703 18.9578125,17.3357422 18.6849609,17.3357422 C18.6634766,17.3357422 18.6441406,17.3357422 18.6226562,17.3335937 L18.5925781,17.3314453 L3.50195313,17.3314453 C3.30214844,17.3314453 3.12597656,17.2841797 2.98847656,17.2132812 L6.07792969,13.8939453 L6.07792969,13.8939453 Z"/>
  </g>
</svg>
