<svg xmlns="http://www.w3.org/2000/svg" width="20" height="20" viewBox="0 0 20 20">
  <g fill="none">
    <rect width="20" height="20" fill="#000" opacity="0"/>
    <path fill="#FFF" d="M15.9902344,1.25390625 L4.00976563,1.25390625 C3.19335938,1.25390625 2.52734375,1.91796875 2.52734375,2.73632813 L2.52734375,17.2714844 C2.52734375,17.7832031 2.78710938,18.2539062 3.22070313,18.5253906 C3.46289063,18.6777344 3.734375,18.7540594 4.00976563,18.7540594 C4.22851563,18.7540594 4.44726563,18.7050781 4.65234375,18.6074219 L10,16.0410156 L15.3476562,18.6074219 C15.8085938,18.828125 16.34375,18.7988281 16.7792969,18.5253906 C17.2128906,18.2519531 17.4726562,17.7832031 17.4726562,17.2714844 L17.4726562,2.73632813 C17.4726562,1.91992188 16.8066406,1.25390625 15.9902344,1.25390625 L15.9902344,1.25390625 Z M15.9902344,17.2714844 L10.6425781,14.703125 C10.234375,14.5078125 9.76757812,14.5078125 9.359375,14.703125 L4.00976563,17.2714844 L4.00976563,2.73632813 L15.9902344,2.73632813 L15.9921875,17.2714844 L15.9902344,17.2714844 Z M13.5058594,7.296875 L11.7128906,7.03710938 L10.9121094,5.4140625 C10.7402344,5.06445313 10.390625,4.84765625 10,4.84765625 C9.609375,4.84765625 9.26171875,5.06445313 9.08789062,5.4140625 L8.28710938,7.03710938 L6.49609375,7.296875 C6.109375,7.35351563 5.79492188,7.6171875 5.67382813,7.98828125 C5.55273438,8.359375 5.65234375,8.75976563 5.93164063,9.03125 L7.22851563,10.2949219 L6.921875,12.0800781 C6.85546875,12.4648438 7.00976563,12.8457031 7.32617188,13.0742188 C7.640625,13.3027344 8.05273438,13.3320313 8.3984375,13.1523438 L10,12.3105469 L11.6015625,13.1523438 C11.7519531,13.2304688 11.9140625,13.2695313 12.0761719,13.2695313 C12.2851562,13.2695313 12.4941406,13.203125 12.6738281,13.0742188 C12.9902344,12.8457031 13.1445312,12.4628906 13.078125,12.0800781 L12.7714844,10.2949219 L14.0683594,9.03125 C14.3476562,8.75976563 14.4453125,8.359375 14.3261719,7.98828125 C14.2050781,7.6171875 13.890625,7.3515625 13.5058594,7.296875 Z M11.5625,9.40234375 C11.3222656,9.63476563 11.2128906,9.97265625 11.2695313,10.3027344 L11.4570313,11.4003906 L10.4726563,10.8828125 C10.1757813,10.7265625 9.82226562,10.7265625 9.52539063,10.8828125 L8.54101563,11.4003906 L8.72851563,10.3046875 C8.78515625,9.97460938 8.67578125,9.63671875 8.43554688,9.40234375 L7.63867188,8.625 L8.73828125,8.46484375 C9.0703125,8.41601563 9.35546875,8.20898438 9.50390625,7.90820313 L9.99609375,6.91015625 L10.4882813,7.90820313 C10.6367188,8.20898438 10.921875,8.41601563 11.2539063,8.46484375 L12.3554688,8.625 L11.5625,9.40234375 L11.5625,9.40234375 Z"/>
  </g>
</svg>
