<svg xmlns="http://www.w3.org/2000/svg" width="16" height="16" viewBox="0 0 16 16">
  <g fill="none">
    <rect width="16" height="16" fill="#000" opacity="0"/>
    <path fill="#FFF" d="M14.25,0.27 L5.32,0.27 C4.49157288,0.27 3.82,0.941572875 3.82,1.77 L3.82,3.07 L4.82,3.07 L4.82,1.77 C4.82,1.49385763 5.04385763,1.27 5.32,1.27 L14.25,1.27 C14.5261424,1.27 14.75,1.49385763 14.75,1.77 L14.75,11.94 C14.7500274,12.0717074 14.6970321,12.1978806 14.602965,12.2900663 C14.5088979,12.3822521 14.38168,12.4326879 14.25,12.43 L11.68,12.43 L11.68,13.43 L14.25,13.43 C15.0745375,13.43 15.7445031,12.7645192 15.75,11.94 L15.75,1.77 C15.75,0.941572875 15.0784271,0.27 14.25,0.27 Z"/>
    <path fill="#FFF" d="M10.68,15.73 L1.75,15.73 C0.921572875,15.73 0.25,15.0584271 0.25,14.23 L0.25,4.06 C0.255496917,3.23548078 0.925462457,2.57 1.75,2.57 L10.68,2.57 C11.5045375,2.57 12.1745031,3.23548078 12.18,4.06 L12.18,14.23 C12.18,15.0584271 11.5084271,15.73 10.68,15.73 L10.68,15.73 Z M1.74999999,3.56989781 C1.61832003,3.56731209 1.4911021,3.61774789 1.39703498,3.70993366 C1.30296787,3.80211943 1.24999999,3.92829261 1.24999999,4.06 L1.24999999,14.23 C1.24999999,14.5061424 1.47385763,14.73 1.74999999,14.73 L10.68,14.73 C10.9561424,14.73 11.18,14.5061424 11.18,14.23 L11.18,4.06 C11.1745543,3.78777065 10.9522838,3.56989781 10.68,3.56989781 L1.74999999,3.56989781 Z"/>
    <path fill="#FFF" d="M9.43,6.62 L3,6.62 C2.72385763,6.62 2.5,6.39614237 2.5,6.12 C2.5,5.84385763 2.72385763,5.62 3,5.62 L9.43,5.62 C9.70614237,5.62 9.93,5.84385763 9.93,6.12 C9.93,6.39614237 9.70614237,6.62 9.43,6.62 Z M9.43,9.65 L3,9.65 C2.72385763,9.65 2.5,9.42614237 2.5,9.15 C2.5,8.87385763 2.72385763,8.65 3,8.65 L9.43,8.65 C9.70614237,8.65 9.93,8.87385763 9.93,9.15 C9.93,9.42614237 9.70614237,9.65 9.43,9.65 Z M9.43,12.67 L3,12.67 C2.72385763,12.67 2.5,12.4461424 2.5,12.17 C2.5,11.8938576 2.72385763,11.67 3,11.67 L9.43,11.67 C9.70614237,11.67 9.93,11.8938576 9.93,12.17 C9.93,12.4461424 9.70614237,12.67 9.43,12.67 Z"/>
  </g>
</svg>
