<svg xmlns="http://www.w3.org/2000/svg" width="20" height="20" viewBox="0 0 20 20">
  <g fill="none">
    <rect width="20" height="20" fill="#000" opacity="0"/>
    <path fill="#636363" d="M14.0106719,15.3254375 C14.0106719,15.7534375 13.7574062,16.0066875 13.3294062,16.0066875 L6.67623437,16.0066875 C6.24823437,16.0066875 5.99498437,15.7221875 5.99498437,15.2941875 L5.99498437,6.491 L5.00121875,6.491 L5.00121875,15.4348125 C5.00121875,16.2907969 5.69523437,16.9848281 6.55123437,16.9848281 L13.4387812,16.9848281 C14.2947656,16.9848281 14.9887969,16.2907969 14.9887969,15.4348125 L14.9887969,6.491 L14.0106562,6.491 L14.0106562,15.3254375 L14.0106719,15.3254375 Z M9.00135937,14.5817031 L9.00135937,6.8785 C9.00135937,6.6645 8.77979687,6.491 8.50598437,6.491 C8.2321875,6.491 8.01060937,6.6645 8.01060937,6.8785 L8.01060937,14.5816875 C8.01060937,14.7956719 8.2321875,15.0004375 8.50598437,15.0004375 C8.77979687,15.0004375 9.00135937,14.7956875 9.00135937,14.5817031 L9.00135937,14.5817031 Z M11.9950312,14.5817031 L11.9950312,6.8785 C11.9950312,6.6645 11.7728906,6.491 11.498375,6.491 C11.2238906,6.491 11.0017656,6.6645 11.0017656,6.8785 L11.0017656,14.5816875 C11.0017656,14.7956719 11.2238906,15.0004375 11.498375,15.0004375 C11.7728906,15.0004375 11.9950312,14.7956875 11.9950312,14.5817031 L11.9950312,14.5817031 Z M16.1044375,4.49098437 L12.5231406,4.49098437 L12.5231406,3.77846875 C12.5231406,3.35048437 12.1761406,3.00346875 11.748125,3.00346875 L8.273125,3.00346875 C7.845125,3.00346875 7.49810937,3.35048437 7.49810937,3.77846875 L7.49810937,4.49098437 L3.93246875,4.49098437 C3.71828125,4.49098437 3.54496875,4.78948437 3.54496875,5.00348437 C3.54496875,5.21748437 3.71828125,5.516 3.93246875,5.516 L16.1044219,5.516 C16.3186094,5.516 16.4919219,5.21748437 16.4919219,5.00348437 C16.4919219,4.78948437 16.318625,4.49098437 16.1044375,4.49098437 Z"/>
  </g>
</svg>
