<svg xmlns="http://www.w3.org/2000/svg" width="20" height="20" viewBox="0 0 20 20">
  <g fill="none">
    <rect width="20" height="20" fill="#000" opacity="0"/>
    <path fill="#FFF" d="M10.0662109,10.106901 L10.0828776,10.0402344 L10.0662109,10.106901 Z M18.0410156,9.16015625 C18.0332031,9.1484375 18.0234375,9.13671875 18.0136719,9.125 C17.1953125,8.15820312 16.2734375,7.11132812 15.2988281,6.00390625 L15.2949219,6 C14.3125,4.88476562 13.296875,3.73242187 12.3730469,2.640625 C12.3613281,2.62695312 12.3496094,2.61523437 12.3378906,2.60351562 C11.6289063,1.90234375 10.8808594,1.546875 10.1113281,1.546875 L10.0703125,1.546875 C9.32226562,1.55859375 8.62304688,1.90429687 7.98828125,2.57421875 C7.984375,2.578125 7.98046875,2.58203125 7.9765625,2.58789062 C7.09375,3.58007812 6.08007813,4.64648437 5.09960938,5.6796875 L5.09570313,5.68359375 C4.10351562,6.7265625 3.078125,7.8046875 2.16796875,8.82617187 L2.16601562,8.828125 C1.29101562,9.82226562 1.54101562,10.6914062 1.68945312,11.0175781 C1.96289062,11.6210937 2.59375,12.0605469 3.18945312,12.0605469 L3.99804688,12.0605469 L3.99804688,16.2148437 C3.99804688,16.7460938 4.18554688,17.2890625 4.51367188,17.703125 C4.89648438,18.1855469 5.42382813,18.4511719 5.99804688,18.4511719 L8.703125,18.4511719 C9.02734375,18.4511719 9.2890625,18.1894531 9.2890625,17.8652344 L9.2890625,13.7402344 L11.0742187,13.7402344 L11.0742187,17.8691406 C11.0742187,18.1933594 11.3359375,18.4550781 11.6601562,18.4550781 L14.3847656,18.4550781 C14.8730469,18.4550781 15.359375,18.2382812 15.7148438,17.859375 C16.1601562,17.3867188 16.3847656,16.7109375 16.3847656,15.8496094 L16.3847656,12.0625 L16.8203125,12.0625 C17.4453125,12.0625 17.9882812,11.7304688 18.2714844,11.1757812 C18.5917969,10.5546875 18.5058594,9.80078125 18.0410156,9.16015625 Z M17.2304688,10.6425781 C17.1484375,10.8027344 17.0039063,10.890625 16.8222656,10.890625 L15.8007813,10.890625 C15.4765625,10.890625 15.2148438,11.1523438 15.2148438,11.4765625 L15.2148438,15.8476563 C15.2148438,16.3925781 15.09375,16.8105469 14.8632813,17.0546875 C14.6640625,17.265625 14.4472656,17.2832031 14.3847656,17.2832031 L12.2480469,17.2832031 L12.2480469,13.1542969 C12.2480469,12.8300781 11.9863281,12.5683594 11.6621094,12.5683594 L8.703125,12.5683594 C8.37890625,12.5683594 8.1171875,12.8300781 8.1171875,13.1542969 L8.1171875,17.2832031 L6,17.2832031 C5.51171875,17.2832031 5.171875,16.7226563 5.171875,16.21875 L5.171875,11.4765625 C5.171875,11.1523438 4.91015625,10.890625 4.5859375,10.890625 L3.19140625,10.890625 C3.109375,10.890625 2.86328125,10.7695313 2.7578125,10.5371094 C2.640625,10.2753906 2.73828125,9.953125 3.04492188,9.60546875 C3.94140625,8.59960938 4.95898438,7.52734375 5.9453125,6.4921875 L5.95117188,6.48632813 C6.93359375,5.44921875 7.95117188,4.37890625 8.84765625,3.37304688 C9.25390625,2.9453125 9.671875,2.72460938 10.0898438,2.71679688 C10.5410156,2.70898438 11.0136719,2.9453125 11.4960938,3.41796875 C12.4238281,4.51171875 13.4375,5.66210938 14.4160156,6.7734375 L14.4199219,6.77734375 C15.3847656,7.87304688 16.296875,8.90820313 17.1035156,9.86328125 C17.296875,10.1386719 17.34375,10.421875 17.2304688,10.6425781 Z"/>
  </g>
</svg>
