<svg xmlns="http://www.w3.org/2000/svg" width="22" height="22" viewBox="0 0 22 22">
  <g fill="none">
    <rect width="22" height="22" fill="#000" opacity="0"/>
    <path fill="#55D8BF" d="M7.9561582,3.953125 L7.21264844,6.79529297 L2.72851563,7.39247266 L2.72851563,18.0683594 L19.3359375,18.0683594 L19.3359375,7.39180664 L14.8063652,6.78579687 L14.0653262,3.953125 L7.9561582,3.953125 Z M6.18457813,5.63174219 L6.70905469,3.62688477 C6.85744727,3.05969727 7.36987109,2.6640625 7.9561582,2.6640625 L14.0653262,2.6640625 C14.6516133,2.6640625 15.1640371,3.05969727 15.3124297,3.62688477 L15.8345645,5.62280469 L19.5068887,6.11415234 C20.1470371,6.19978906 20.625,6.74594336 20.625,7.39182813 L20.625,18.0683594 C20.625,18.7802871 20.0478652,19.3574219 19.3359375,19.3574219 L2.72851563,19.3574219 C2.01658789,19.3574219 1.43945313,18.7802871 1.43945313,18.0683594 L1.43945313,7.39249414 C1.43945313,6.74633008 1.9178457,6.20002539 2.55833789,6.11471094 L6.18457813,5.63174219 Z"/>
    <path fill="#B8E986" d="M11.0107422,16.7792969 C8.33507812,16.7792969 6.16601562,14.6102344 6.16601562,11.9345703 C6.16601562,9.25890625 8.33507812,7.08984375 11.0107422,7.08984375 C13.6864062,7.08984375 15.8554688,9.25890625 15.8554688,11.9345703 C15.8554688,14.6102344 13.6864062,16.7792969 11.0107422,16.7792969 Z M11.0107422,15.4902344 C12.9744785,15.4902344 14.5664062,13.8983066 14.5664062,11.9345703 C14.5664062,9.97083398 12.9744785,8.37890625 11.0107422,8.37890625 C9.04700586,8.37890625 7.45507812,9.97083398 7.45507812,11.9345703 C7.45507812,13.8983066 9.04700586,15.4902344 11.0107422,15.4902344 Z"/>
  </g>
</svg>
