<svg xmlns="http://www.w3.org/2000/svg" width="20" height="20" viewBox="0 0 20 20">
  <rect width="20" height="20" opacity="0"/>
  <path d="M15.7290625,7.5 L14.375,7.5 C14.029822,7.5 13.75,7.77982203 13.75,8.125 C13.75,8.47017797 14.029822,8.75 14.375,8.75 L15.7290625,8.75 C16.01625,8.75 16.25,8.968125 16.25,9.23625 L16.25,15.7640625 C16.25,16.031875 16.01625,16.25 15.7290625,16.25 L4.2709375,16.25 C3.98375,16.25 3.75,16.031875 3.75,15.76375 L3.75,9.23625 C3.75,8.968125 3.98375,8.75 4.2709375,8.75 L5.625,8.75 C5.97017797,8.75 6.25,8.47017797 6.25,8.125 C6.25,7.77982203 5.97017797,7.5 5.625,7.5 L4.2709375,7.5 C3.294375,7.5 2.5,8.27875 2.5,9.23625 L2.5,15.7640625 C2.5,16.72125 3.294375,17.5 4.2709375,17.5 L15.729375,17.5 C16.705625,17.5 17.5,16.72125 17.5,15.76375 L17.5,9.23625 C17.5,8.27875 16.705625,7.5 15.7290625,7.5 Z M9.375,13.75 C9.375,14.095178 9.65482203,14.375 10,14.375 C10.345178,14.375 10.625,14.095178 10.625,13.75 L10.625,6.25 L13.125,6.25 L10.01625,2.5 L6.875,6.25 L9.375,6.25 L9.375,13.75 Z"/>
</svg>
